<svg xmlns="http://www.w3.org/2000/svg" viewBox="0 0 755.2 552.6">
  <g fill="#82B91E">
    <path d="M505.3 0H385.5c-8 0-15.7 3.2-22 8.3-6.2 5-10.8 12.3-12.6 20.2-4 15.7 6 28.5 22 28.5h120c139 0 228 113 198 251.8l-8.6 40 .2-.7c-2.6 16 7.3 28 22.6 28 14.3 0 28.4-10.2 33.3-24l2-9 7-33.2c2-9.6 3.2-19 4.4-28C772 123.8 666 0 505 0z"/>
    <path d="M481 113.8H250.7c-15.6 0-31.2 12.8-34.4 28.4-3.3 15.6 6.6 28.2 22 28.5H469c76 0 125 62 108.8 138l-26 123c-3.5 15.6 6.6 28.4 22.3 28.4s32-12 35-28l14.8-68 11.7-55c22.6-107-46.4-195-154-195z"/>
    <path d="M456.8 227.5h-322c-22.4 0-44.7 9-62.4 23.8-17.8 14.8-31.4 35-36 57.5L1.8 471.3c-9.4 44.7 19.2 81.3 64 81.3h322c22.5 0 44.7-9 62.5-23.8 18-14.7 31.3-35 36-57.5l34.5-162.5c9.6-44.8-19.2-81.3-64-81.3zm-7.5 87l-32 151c-2.6 12-15.3 22.5-27.3 22.5H91c-12.2 0-20.4-10.3-17.7-22.6l32-151c2.6-12.2 15.2-22.4 27.4-22.4h298.8c12.4 0 20.5 10.4 17.8 22.5z"/>
  </g>
</svg>